<?xml version="1.0" encoding="utf-8"?>
<!-- Generator: Adobe Illustrator 28.0.0, SVG Export Plug-In . SVG Version: 6.00 Build 0)  -->
<svg version="1.1" id="Layer_1" xmlns="http://www.w3.org/2000/svg" xmlns:xlink="http://www.w3.org/1999/xlink" x="0px" y="0px"
	 viewBox="0 0 170.1 34.8" style="enable-background:new 0 0 170.1 34.8;" xml:space="preserve">
<style type="text/css">
	.st0{fill:#FFFFFF;}
</style>
<g>
	<g>
		<path class="st0" d="M134.2,6.6h-4.3v15.5h4.3V6.6z M25.5,22.1l6.8-21.9h-5l-4.3,14.7h-0.1L18.3,0.2h-4.2L9.5,14.8H9.5L5.2,0.2H0
			l6.8,21.9h5l4.4-14h0.1l4.3,14H25.5z M47.3,14.4c0-4.6-3.3-7.9-7.9-8.1v3.8c2.1,0.2,3.5,1.9,3.5,4.2c0,2.5-1.6,4.3-3.9,4.3
			c-2.2,0-3.8-1.6-3.9-3.9h-4.4c0.1,3.8,2.5,6.7,6.1,7.5v4.4h-4.1v4h4.1v4.2h4.3v-4.2h4.1v-4h-4.1v-4.4
			C44.8,21.4,47.3,18.4,47.3,14.4 M68.5,22.1h4.3v-9.3c0-4.2-2.1-6.6-5.8-6.6c-2.5,0-4.1,0.8-5.1,2.5h-0.1c-1-1.7-2.6-2.5-4.7-2.5
			c-2.1,0-3.7,0.9-4.6,2.4h-0.1l-0.2-2.1h-3.6v15.5h4.3v-8.3c0-2.4,1-3.7,2.9-3.7c1.7,0,2.6,1.1,2.6,3.3v8.8H63v-8c0-2.7,1-4,2.9-4
			c1.7,0,2.6,1.1,2.6,3.3V22.1z M86.1,14.4c0,2.5-1.6,4.3-3.9,4.3c-2.3,0-4-1.8-4-4.3c0-2.5,1.6-4.3,4-4.3
			C84.5,10.1,86.1,11.9,86.1,14.4 M86.7,22.1h3.6V6.6h-3.6l-0.2,2h-0.1c-1-1.5-2.7-2.3-5-2.3c-4.4,0-7.6,3.4-7.6,8.1
			s3.2,8.1,7.6,8.1c2.3,0,4-0.9,5.1-2.4h0.1L86.7,22.1z M103.4,22.1h4.3v-9.2c0-4.2-2.2-6.6-6-6.6c-2.2,0-3.9,0.9-4.9,2.5h-0.1
			l-0.2-2.2H93v15.5h4.3v-8.3c0-2.4,1.2-3.8,3.2-3.8c1.8,0,2.9,1.2,2.9,3.3V22.1z M129.3,22.1L119.2,11L129,0.2h-6.2l-8.1,9.2V0.2
			h-4.9v21.9h4.9v-9.3l8.1,9.3H129.3z M134.7,2.6c0-1.6-1.1-2.6-2.7-2.6c-1.6,0-2.7,1.1-2.7,2.6c0,1.6,1.1,2.7,2.7,2.7
			C133.6,5.3,134.7,4.2,134.7,2.6 M147,22.1h4.3v-9.2c0-4.2-2.2-6.6-6-6.6c-2.2,0-3.9,0.9-4.9,2.5h-0.1l-0.2-2.2h-3.6v15.5h4.3v-8.3
			c0-2.4,1.2-3.8,3.2-3.8c1.8,0,2.9,1.2,2.9,3.3V22.1z M165.6,14.4c0,2.5-1.6,4.3-3.9,4.3c-2.3,0-4-1.8-4-4.3c0-2.5,1.6-4.3,4-4.3
			C164,10.1,165.6,11.9,165.6,14.4 M170.1,22.1V0.4h-4.6v7.5h-0.1c-1.1-1.1-2.5-1.7-4.5-1.7c-4.4,0-7.6,3.4-7.6,8.1s3.2,8.1,7.6,8.1
			c2.3,0,4-0.9,5.1-2.4h0.1l0.1,2.1H170.1z"/>
	</g>
</g>
</svg>
